# xmcd CD database file
#
# Track frame offsets:
#	150
#	17122
#	53572
#	82750
#	129965
#	152730
#	181812
#	214182
#	239147
#	265787
#	306530
#	335480
#	358527
#
# Disc length: 4796 seconds
#
# Revision: 1
# Processed by: cddbd v1.5.1PL2 Copyright (c) Steve Scherf et al.
# Submitted via: CDex 1.51
#
DISCID=b212ba0d
DTITLE=Melvin Lee Davis - Nature's Serenade
DYEAR=2003
DGENRE=Jazz
TTITLE0=Keeper of the Low Notes
TTITLE1=7 Steps 2 Getting There
TTITLE2=A Message From Home
TTITLE3=The Chick's Korean
TTITLE4=The Traveler
TTITLE5=Love Will Come Someday
TTITLE6=Nature's Serenade
TTITLE7=Homeland (For Africa)
TTITLE8=The Four Sleepers
TTITLE9=Footprints
TTITLE10=The Little Ones
TTITLE11=Serenity
TTITLE12=Jesus
EXTD=YEAR: 2003
EXTT0=
EXTT1=
EXTT2=
EXTT3=
EXTT4=
EXTT5=
EXTT6=
EXTT7=
EXTT8=
EXTT9=
EXTT10=
EXTT11=
EXTT12=
PLAYORDER=
